<svg xmlns="http://www.w3.org/2000/svg" width="1200" height="630" viewBox="0 0 1200 630" role="img" aria-labelledby="title desc">
  <title id="title">X Algorithm: No Bullshit</title>
  <desc id="desc">The source is public. The knobs are not.</desc>
  <defs>
    <linearGradient id="bg" x1="0" y1="0" x2="1" y2="1"><stop stop-color="#070912"/><stop offset=".55" stop-color="#10152a"/><stop offset="1" stop-color="#210d2f"/></linearGradient>
    <linearGradient id="line" x1="0" x2="1"><stop stop-color="#6cf5d2"/><stop offset="1" stop-color="#b680ff"/></linearGradient>
    <filter id="glow"><feGaussianBlur stdDeviation="8" result="b"/><feMerge><feMergeNode in="b"/><feMergeNode in="SourceGraphic"/></feMerge></filter>
  </defs>
  <rect width="1200" height="630" fill="url(#bg)"/>
  <g opacity=".17" stroke="#9ca8d8" stroke-width="1"><path d="M0 100H1200M0 210H1200M0 320H1200M0 430H1200M0 540H1200"/><path d="M100 0V630M280 0V630M460 0V630M640 0V630M820 0V630M1000 0V630M1180 0V630"/></g>
  <path d="M-20 490C190 420 250 530 430 420S700 250 855 338s204 68 365-79" fill="none" stroke="#b680ff" stroke-width="3" opacity=".52" filter="url(#glow)"/>
  <path d="M-20 513C190 443 250 553 430 443S700 273 855 361s204 68 365-79" fill="none" stroke="url(#line)" stroke-width="4"/>
  <g fill="#6cf5d2"><circle cx="430" cy="443" r="8"/><circle cx="855" cy="361" r="8"/></g>
  <text x="72" y="96" fill="#6cf5d2" font-family="ui-monospace, SFMono-Regular, Menlo, monospace" font-size="22" font-weight="700" letter-spacing="4">EVIDENCE, NOT MYTHS</text>
  <text x="72" y="208" fill="#f7f8ff" font-family="Arial, Helvetica, sans-serif" font-size="68" font-weight="800">X Algorithm:</text>
  <text x="72" y="288" fill="#f7f8ff" font-family="Arial, Helvetica, sans-serif" font-size="68" font-weight="800">No Bullshit</text>
  <rect x="72" y="333" width="655" height="3" fill="url(#line)"/>
  <text x="72" y="390" fill="#d8dcef" font-family="Arial, Helvetica, sans-serif" font-size="32" font-weight="500">The source is public.</text>
  <text x="72" y="435" fill="#d8dcef" font-family="Arial, Helvetica, sans-serif" font-size="32" font-weight="500">The knobs aren’t.</text>
  <g transform="translate(852 126)"><rect width="262" height="150" rx="16" fill="#0b1021" stroke="#6cf5d2" stroke-width="2"/><text x="24" y="42" fill="#6cf5d2" font-family="ui-monospace, monospace" font-size="16">STATUS</text><text x="24" y="83" fill="#fff" font-family="ui-monospace, monospace" font-size="21" font-weight="700">22 SCORE TERMS</text><text x="24" y="118" fill="#b7c0dc" font-family="ui-monospace, monospace" font-size="15">LIVE VALUES: UNKNOWN</text></g>
  <text x="72" y="574" fill="#9ca8c8" font-family="ui-monospace, monospace" font-size="18">PROVENANCE-FIRST · CURRENT ≠ LEGACY</text>
</svg>
